<?xml version="1.0" standalone="no"?>
<!DOCTYPE svg PUBLIC "-//W3C//DTD SVG 20010904//EN"
 "http://www.w3.org/TR/2001/REC-SVG-20010904/DTD/svg10.dtd">
<svg version="1.0" xmlns="http://www.w3.org/2000/svg"
 width="1215.000000pt" height="717.000000pt" viewBox="0 0 1215.000000 717.000000"
 preserveAspectRatio="xMidYMid meet">
<metadata>
Created by potrace 1.16, written by Peter Selinger 2001-2019
</metadata>
<g transform="translate(0.000000,717.000000) scale(0.100000,-0.100000)"
fill="#000000" stroke="none">
<path d="M0 5366 c0 -1796 0 -1805 20 -1811 23 -7 24 -13 6 -80 -14 -52 -11
-74 7 -56 15 15 30 14 24 -1 -6 -18 22 -64 49 -79 13 -6 26 -24 29 -40 8 -37
24 -41 75 -18 l44 20 -20 -22 c-10 -13 -27 -31 -36 -41 -20 -20 -21 -25 -18
-82 1 -30 10 -49 38 -79 21 -21 36 -43 35 -48 -2 -5 9 -10 25 -10 23 -2 24 -2
4 -6 -29 -6 -19 -23 14 -23 15 0 24 -6 24 -15 0 -8 5 -15 11 -15 5 0 7 -5 4
-10 -3 -5 1 -10 9 -10 9 0 16 5 16 10 0 7 13 8 35 4 26 -5 36 -2 41 9 3 8 19
21 35 27 16 7 29 16 29 20 0 4 18 12 40 19 52 15 100 57 100 86 0 13 6 26 13
28 9 4 9 8 -1 15 -12 8 -12 13 0 31 9 15 10 26 2 38 -9 14 -4 20 28 36 31 16
38 24 38 49 0 21 13 43 46 78 52 55 70 80 69 95 -1 18 -26 55 -36 55 -17 0
-108 -83 -129 -117 -15 -25 -23 -30 -42 -25 -22 5 -22 6 -3 11 13 4 21 16 22
35 l2 29 -33 -36 c-21 -23 -43 -37 -57 -37 -19 0 -21 2 -9 10 13 9 13 12 -3
21 -24 14 -21 28 10 40 18 7 23 13 15 18 -7 4 14 13 49 20 33 8 57 16 54 19
-2 3 0 11 6 19 7 7 9 26 5 44 -3 18 -2 28 4 24 13 -8 13 8 0 21 -6 6 -6 15 1
24 8 12 9 12 7 -4 -2 -10 3 -21 10 -23 6 -3 12 1 12 9 0 17 101 63 128 59 7
-1 15 6 19 16 4 10 19 29 34 43 15 14 46 58 68 98 53 92 49 111 -24 143 -30
13 -51 27 -49 31 3 4 0 8 -6 8 -6 0 3 20 20 45 17 24 46 85 65 134 19 50 46
107 60 127 14 20 25 41 25 47 0 6 11 25 25 43 14 18 25 37 25 42 0 5 7 15 15
22 9 7 14 19 11 27 -3 7 1 13 9 13 8 0 19 9 25 19 6 12 18 18 30 16 22 -4 28
10 8 18 -7 3 -2 6 12 6 38 2 71 56 63 104 -3 22 -11 37 -19 37 -35 0 -64 16
-64 35 0 9 -6 12 -15 9 -10 -4 -15 0 -15 11 0 9 -6 15 -12 13 -17 -6 -50 35
-36 43 6 4 8 21 4 43 -6 32 -9 35 -26 26 -10 -5 -27 -10 -38 -10 -11 0 -25 -7
-32 -15 -7 -8 -28 -17 -47 -21 -19 -4 -37 -12 -40 -20 -7 -18 -63 -37 -63 -20
0 6 5 17 12 24 9 9 9 12 -2 12 -9 1 -7 5 7 13 12 7 22 17 22 22 0 6 10 13 23
17 13 3 17 6 10 7 -10 1 -10 4 2 16 8 8 18 15 23 15 5 0 16 8 25 18 21 22 36
33 78 56 19 11 41 25 49 30 28 21 117 112 131 133 l15 22 55 -19 55 -19 53 52
c68 66 103 139 112 231 6 65 10 74 44 109 21 20 42 37 47 37 5 0 17 8 27 18
10 9 38 27 62 39 25 12 60 35 77 50 18 15 54 46 80 68 26 22 76 68 110 102 35
35 67 63 73 63 5 0 10 6 10 14 0 8 9 18 20 21 11 3 20 15 20 25 0 20 30 36 39
21 4 -5 15 -9 26 -8 15 2 21 -5 23 -25 4 -35 15 -43 95 -62 52 -13 89 -16 160
-10 85 6 93 5 110 -14 11 -12 16 -26 12 -31 -8 -14 64 -81 88 -81 9 0 17 -6
17 -14 0 -7 9 -25 20 -39 59 -74 -15 -166 -122 -152 -28 4 -53 3 -57 -1 -3 -5
-21 -17 -39 -26 -82 -45 -99 -56 -152 -93 -52 -37 -67 -65 -36 -65 13 0 46
-31 46 -43 0 -4 -6 -7 -13 -7 -16 0 -97 -75 -97 -90 0 -5 -19 -10 -42 -11 -33
0 -38 -2 -23 -9 17 -7 18 -9 4 -14 -9 -4 -20 -6 -25 -5 -24 4 -54 -17 -90 -63
-21 -28 -45 -56 -52 -62 -7 -6 -29 -28 -49 -48 -20 -21 -40 -35 -45 -31 -6 3
-8 -2 -4 -13 5 -15 -2 -22 -32 -31 -47 -15 -63 -2 -35 29 30 33 48 125 29 144
-13 13 -25 5 -95 -63 -45 -42 -81 -83 -81 -90 0 -15 49 -73 61 -73 5 0 20 12
34 28 21 23 27 25 35 12 14 -21 12 -30 -4 -24 -8 3 -16 1 -20 -4 -8 -13 30 -8
48 7 14 11 16 11 16 -3 0 -9 -6 -16 -12 -16 -9 -1 -7 -5 3 -13 9 -7 18 -21 21
-32 2 -13 10 -19 22 -17 12 2 17 -1 13 -10 -3 -9 3 -15 19 -16 13 -1 24 2 24
7 0 5 14 11 31 15 30 6 108 55 109 68 0 9 35 50 106 124 47 50 67 64 90 64 21
0 43 14 81 51 29 28 53 54 53 58 0 3 13 12 29 19 16 7 41 24 55 39 18 18 40
27 73 31 32 3 89 27 170 69 113 58 127 63 190 64 83 2 166 39 222 99 21 22 45
40 54 40 9 0 17 4 17 9 0 5 14 14 30 21 17 7 34 19 38 26 4 8 34 21 67 29 33
9 62 20 65 24 3 5 21 12 40 16 19 4 41 16 48 26 7 11 19 19 27 19 20 0 95 40
95 51 0 5 4 9 10 9 16 0 85 51 82 61 -1 6 3 9 11 7 16 -4 98 72 91 83 -3 5 2
12 11 15 15 6 52 64 40 64 -3 0 11 21 30 46 19 25 35 50 35 55 0 12 90 99 102
99 14 0 47 38 40 46 -4 4 -1 4 6 0 7 -4 10 -12 7 -17 -4 -5 -1 -9 4 -9 6 0 11
6 12 13 0 6 5 3 10 -8 l9 -20 -4 20 c-3 11 -19 65 -36 120 -36 114 -90 325
-90 349 0 9 7 16 15 16 8 0 15 -9 15 -19 0 -11 16 -57 35 -102 19 -46 35 -87
35 -92 0 -4 14 -20 30 -34 17 -13 30 -31 30 -39 0 -8 4 -14 9 -14 5 0 12 -11
15 -25 3 -13 20 -38 36 -55 17 -17 30 -38 30 -48 0 -15 2 -15 10 -2 7 12 11 7
17 -20 4 -19 6 -38 5 -42 -1 -5 3 -8 10 -8 6 0 3 -9 -7 -20 -14 -15 -15 -20
-4 -20 21 0 -43 -40 -66 -41 -16 -1 -16 -2 -3 -6 9 -2 34 5 55 15 21 11 49 22
63 26 24 7 24 6 -5 -19 -16 -14 -23 -25 -15 -23 10 2 15 -6 16 -27 1 -50 3
-52 34 -58 16 -4 30 -10 30 -14 0 -10 -107 -73 -123 -73 -7 0 -19 -5 -27 -11
-28 -19 72 2 151 32 82 32 127 31 147 -1 8 -14 9 -27 1 -50 -6 -17 -9 -45 -5
-62 5 -25 4 -29 -8 -19 -11 9 -16 9 -22 0 -5 -8 -3 -9 6 -4 10 6 12 4 7 -9 -4
-10 -7 -20 -7 -22 0 -2 -9 -4 -20 -4 -11 0 -20 -5 -20 -11 0 -5 -13 -15 -30
-20 -29 -11 -47 -40 -35 -59 4 -6 10 -8 15 -5 19 12 18 -14 0 -35 -11 -13 -20
-27 -20 -31 0 -4 -7 -14 -15 -23 -17 -16 -29 -116 -14 -116 17 0 9 -19 -11
-25 -11 -4 -27 -20 -35 -36 -9 -16 -20 -29 -26 -29 -6 0 -7 6 -4 13 4 6 -1 3
-10 -8 -9 -11 -21 -19 -26 -17 -11 3 -55 -26 -51 -33 4 -9 2 -20 -6 -33 -7
-10 -18 -9 -57 3 -27 8 -50 13 -50 12 -1 -1 -6 -13 -12 -27 -12 -25 -12 -25
-12 8 -1 19 -5 31 -11 27 -6 -3 -10 -2 -10 4 0 5 -12 4 -27 -4 -25 -13 -29
-13 -53 10 l-26 25 4 -33 4 -32 -51 2 -51 2 0 -40 c0 -24 -4 -38 -10 -34 -5 3
-10 15 -10 26 0 27 -20 24 -21 -3 0 -13 -3 -18 -5 -11 -4 8 -14 9 -34 3 -16
-5 -38 -6 -49 -3 -10 3 -28 0 -39 -6 -11 -6 -51 -13 -88 -15 -68 -5 -70 -6
-128 -62 -48 -47 -56 -59 -44 -69 7 -8 60 -37 118 -65 170 -83 190 -94 211
-113 11 -10 17 -22 14 -28 -4 -5 1 -12 9 -15 9 -3 16 -12 16 -20 0 -8 5 -14
10 -14 6 0 10 5 10 10 0 17 13 11 52 -23 26 -24 34 -37 28 -47 -7 -12 -13 -11
-33 8 -13 12 -26 22 -29 22 -3 0 -9 -31 -13 -68 -11 -113 16 -238 75 -349 29
-53 43 -90 35 -86 -8 3 -15 8 -15 12 0 4 -9 17 -20 29 -17 18 -25 20 -41 11
-12 -6 -18 -17 -15 -25 9 -22 -12 -16 -25 7 -13 26 2 40 33 31 17 -4 18 -2 10
14 -5 10 -15 33 -22 49 -11 28 -13 28 -21 10 -7 -19 -8 -19 -8 3 -1 12 -5 22
-11 22 -5 0 -9 -3 -9 -7 1 -5 1 -17 0 -28 -1 -17 -3 -18 -11 -5 -5 8 -10 43
-10 78 0 36 -4 62 -10 62 -7 0 -9 -32 -6 -89 4 -82 7 -94 40 -146 20 -31 34
-60 31 -65 -15 -24 91 -138 207 -224 42 -31 91 -38 160 -22 l37 8 3 -38 c3
-33 9 -41 49 -65 26 -15 55 -29 65 -31 21 -4 49 -50 58 -95 5 -30 3 -33 -20
-33 -14 0 -34 5 -45 10 -10 6 -19 8 -19 6 0 -3 19 -16 43 -28 29 -15 37 -23
25 -26 -9 -2 -15 -9 -12 -16 4 -10 -2 -12 -20 -9 -14 3 -32 -1 -40 -8 -8 -8
-26 -23 -41 -34 -15 -11 -41 -33 -59 -50 -108 -100 -102 -96 -122 -74 -23 26
-23 112 0 192 12 42 29 68 67 106 28 28 55 51 60 51 15 0 -31 45 -75 74 -21
14 -45 26 -53 26 -27 0 -140 -99 -229 -201 -95 -109 -134 -149 -146 -149 -4 0
-23 -14 -43 -32 -40 -35 -67 -81 -84 -146 -14 -51 -52 -110 -68 -105 -6 2 -18
-6 -27 -19 -9 -12 -31 -29 -48 -38 -46 -21 -76 -82 -125 -255 l-43 -150 6 83
c3 45 2 82 -2 82 -53 0 -241 -112 -352 -209 -60 -53 -122 -136 -122 -165 0 -7
-7 -27 -16 -44 -8 -18 -18 -56 -21 -86 -4 -40 -9 -53 -21 -52 -21 1 -30 -41
-43 -194 -13 -158 -13 -179 -6 -325 l7 -120 -21 63 c-12 35 -25 59 -31 56 -5
-4 -27 -6 -48 -6 -22 0 -44 -6 -50 -14 -7 -7 -16 -11 -22 -8 -5 3 -16 0 -24
-7 -8 -6 -17 -9 -21 -5 -8 8 -28 -21 -74 -112 -34 -67 -38 -83 -33 -123 l6
-46 -55 -32 c-30 -17 -68 -34 -86 -37 -27 -6 -31 -4 -31 15 0 12 -4 19 -10 16
-5 -3 -10 -14 -10 -23 0 -9 -22 -32 -49 -50 -60 -41 -75 -82 -30 -82 16 0 29
-5 29 -10 0 -6 12 -15 27 -21 l26 -10 -27 -28 c-28 -29 -162 -88 -223 -98 -26
-4 -33 -2 -34 11 -3 33 -4 37 -19 47 -11 8 -12 12 -3 16 7 2 23 13 35 23 l23
19 -24 1 c-16 0 -21 4 -18 15 4 8 2 17 -4 20 -5 4 -13 -4 -18 -17 -6 -13 -10
-17 -10 -10 -1 7 -15 12 -33 12 -18 0 -42 7 -52 15 -39 29 -132 19 -277 -30
-73 -25 -149 -45 -169 -45 -48 0 -102 30 -118 66 -12 25 -20 30 -54 31 -23 1
-51 -5 -65 -14 -42 -28 -183 -8 -288 41 -16 8 -42 17 -57 21 -55 14 -78 172
-37 249 23 44 54 73 85 82 12 3 26 15 32 28 18 39 65 88 137 140 78 57 100 68
165 86 25 6 90 29 145 51 129 50 241 74 445 94 91 8 193 22 228 31 35 8 67 12
73 9 5 -4 9 -2 9 2 0 5 21 15 47 22 38 12 43 16 27 22 -10 4 -32 8 -48 8 -27
1 -28 2 -12 14 17 13 16 15 -16 30 -18 9 -69 26 -112 37 -44 12 -98 30 -120
40 -33 14 -61 16 -141 13 -55 -3 -103 -8 -107 -12 -12 -11 16 -54 46 -71 35
-19 43 -50 15 -57 -10 -3 -19 -9 -19 -13 0 -12 -49 -29 -110 -40 -30 -5 -66
-12 -80 -16 -14 -3 -73 -8 -132 -9 -59 -2 -130 -11 -157 -19 -34 -10 -53 -11
-57 -5 -11 18 12 31 55 32 38 1 41 3 41 30 0 15 -5 37 -10 47 -7 13 -7 21 0
25 6 4 8 10 5 15 -10 16 25 58 63 76 l37 18 -45 7 c-65 11 -220 10 -330 -1
-52 -5 -129 -12 -170 -15 -99 -8 -139 -19 -253 -70 -50 -22 -120 -45 -140 -45
-10 0 -39 -20 -64 -44 -38 -37 -50 -43 -79 -41 -19 2 -34 0 -34 -5 0 -4 -13
-13 -29 -18 -16 -6 -34 -19 -40 -29 -7 -15 -19 -19 -50 -17 l-40 2 -1 -1139 0
-1139 6075 0 6075 0 0 3585 0 3585 -2400 0 c-1517 0 -2400 -4 -2400 -10 0 -8
-47 -21 -90 -25 -9 0 -21 -5 -28 -9 -9 -5 -22 0 -37 14 -13 12 -28 19 -34 16
-5 -4 -12 -2 -16 4 -3 5 -13 10 -21 10 -9 0 -12 -5 -8 -11 5 -8 1 -8 -14 0
-14 7 -122 11 -321 11 l-301 0 0 -25 c0 -14 -9 -34 -20 -45 -12 -12 -20 -15
-20 -7 0 27 -42 -58 -50 -105 -6 -27 -12 -54 -15 -59 -15 -23 -21 -4 -17 54 6
96 -6 64 -17 -45 -5 -54 -15 -105 -21 -115 -9 -14 -10 -10 -6 24 8 53 -6 63
-23 17 -17 -46 -27 -36 -11 10 6 20 10 41 8 48 -2 6 -14 -20 -26 -59 -12 -38
-29 -78 -38 -89 -15 -19 -16 -19 -9 1 3 11 11 40 17 65 6 25 16 61 24 80 16
45 26 90 19 90 -3 0 -16 -24 -29 -54 -23 -52 -51 -86 -41 -49 3 10 -6 -4 -20
-32 -13 -27 -25 -61 -26 -75 0 -23 -1 -23 -8 -5 -5 11 -4 25 1 33 6 6 7 12 3
12 -4 0 -3 6 2 13 12 14 34 77 28 77 -2 0 -15 -15 -28 -34 -22 -33 -23 -41
-21 -200 2 -154 4 -170 28 -223 21 -47 23 -53 6 -33 -24 30 -50 114 -61 195
-8 58 -8 58 -4 -17 2 -43 2 -78 0 -78 -5 0 -34 140 -38 185 -3 22 -3 0 -1 -50
1 -49 3 -106 3 -127 0 -31 9 -45 61 -98 33 -33 60 -63 60 -66 0 -7 -58 34 -65
46 -4 6 -10 10 -15 10 -5 0 0 -17 12 -37 l22 -38 -25 20 c-13 10 -37 33 -52
50 -24 25 -26 26 -17 6 10 -19 10 -22 -2 -15 -7 5 -16 9 -21 9 -4 0 -23 13
-43 28 -19 16 -38 27 -41 24 -8 -9 98 -107 114 -107 19 0 100 -56 106 -72 2
-7 0 -26 -6 -42 -12 -35 11 -91 42 -101 12 -3 22 -12 22 -18 1 -7 2 -19 3 -27
2 -22 -13 -29 -46 -20 -17 5 -26 5 -23 -1 9 -14 -8 -11 -34 7 -18 13 -25 14
-31 4 -5 -9 -17 -10 -36 -5 -21 6 -24 9 -11 12 42 10 4 123 -48 143 -14 5 -25
14 -25 19 0 5 -6 16 -13 23 -7 7 -18 36 -25 63 -7 28 -26 64 -41 80 -42 44
-54 72 -36 79 8 3 15 10 15 16 0 5 9 19 21 31 18 18 20 28 13 63 -11 60 -9 89
8 122 9 16 37 69 63 118 33 63 46 97 43 117 -4 23 -1 29 13 29 10 0 27 14 39
30 25 35 46 41 30 8 -7 -13 9 -2 34 24 25 26 46 56 46 67 0 21 -5 21 -207 21
l-208 -1 -38 -49 c-44 -57 -53 -51 97 -69 92 -11 109 -17 88 -30 -8 -4 -10
-15 -6 -27 9 -24 -5 -11 -20 18 -11 21 -21 24 -138 32 -69 5 -136 6 -149 3
-45 -12 -150 -131 -198 -225 -26 -51 -71 -203 -74 -246 0 -17 0 -57 1 -90 2
-51 4 -58 20 -53 11 2 37 -7 58 -20 30 -19 33 -24 14 -19 -14 3 -33 6 -43 6
-12 0 -16 4 -11 13 5 8 2 7 -9 -2 -10 -8 -20 -11 -23 -8 -4 3 -21 -5 -39 -18
-17 -14 -34 -23 -37 -20 -8 8 -110 -124 -104 -134 3 -5 -2 -15 -12 -22 -16
-13 -16 -13 -2 6 14 18 14 19 -2 7 -9 -8 -15 -19 -12 -25 2 -7 -13 -31 -33
-53 -55 -60 -82 -94 -92 -113 -12 -21 -28 -147 -37 -276 -6 -96 -8 -102 -45
-151 -22 -28 -39 -54 -39 -58 0 -14 21 6 45 43 13 21 32 41 43 43 17 5 18 3 7
-21 -14 -28 -33 -459 -24 -529 l3 -22 22 25 c29 34 37 32 16 -4 -9 -17 -28
-32 -42 -34 -31 -6 -31 -6 -35 38 -2 20 -7 40 -10 44 -4 3 -6 -15 -4 -41 2
-25 1 -44 -3 -41 -5 2 -8 -1 -8 -6 0 -6 -6 -11 -14 -11 -9 0 -17 16 -21 42 -8
48 1 345 16 498 10 103 14 369 5 377 -2 2 -7 -40 -11 -94 -11 -162 -25 -208
-20 -63 3 69 10 145 15 169 15 60 76 162 194 321 122 163 112 147 120 193 7
36 6 38 -16 35 -13 -2 -29 -9 -36 -15 -7 -7 -20 -13 -28 -13 -8 0 -14 -4 -14
-10 0 -5 -7 -10 -15 -10 -9 0 -18 -12 -21 -30 -4 -16 -12 -30 -18 -30 -7 0
-22 -9 -34 -20 -28 -27 -42 -25 -42 5 0 29 -2 30 -40 10 -17 -9 -30 -11 -30
-5 0 5 -18 10 -40 10 -25 0 -40 5 -41 13 0 6 -8 -4 -17 -23 l-16 -35 -6 55
c-4 36 -7 46 -10 30 -7 -34 -36 -36 -92 -6 l-47 25 -25 -20 -25 -20 14 40 c13
38 13 41 -7 55 -27 19 -14 38 25 34 21 -1 31 2 30 9 -2 7 3 10 10 7 19 -7 129
55 120 69 -4 7 0 8 11 4 17 -7 141 31 132 40 -2 2 -28 -5 -57 -17 -58 -21 -85
-26 -56 -9 15 9 16 13 5 27 -7 9 -8 13 -2 9 6 -3 26 7 44 23 19 17 37 30 41
30 4 0 23 14 41 30 18 17 44 33 58 37 14 3 37 15 52 25 16 11 32 17 37 13 5
-3 12 -1 16 4 7 13 48 10 57 -4 4 -5 8 0 8 13 0 14 4 20 10 17 6 -4 8 -15 5
-26 -4 -10 -4 -19 -1 -19 2 0 26 54 51 120 26 66 49 120 51 120 2 0 8 -10 15
-21 7 -15 8 -24 1 -28 -13 -8 -46 -167 -38 -186 3 -8 12 -12 20 -9 8 3 17 1
21 -5 3 -7 0 -8 -9 -5 -10 4 -14 0 -13 -13 0 -11 7 -20 15 -20 16 0 87 106 84
125 -2 6 6 12 16 12 22 0 55 33 45 45 -5 4 -3 6 2 2 14 -8 48 19 40 32 -3 6 0
9 8 6 7 -3 40 10 72 30 35 20 72 35 91 35 23 0 36 7 48 25 9 14 23 36 32 50
l16 25 -2861 0 -2861 0 0 -1804z m9525 1482 c-103 -132 -147 -174 -189 -182
-34 -7 -37 -6 -27 12 5 10 17 24 25 32 9 7 16 18 16 24 0 7 7 21 16 32 15 19
15 18 11 -3 -3 -13 -1 -26 4 -29 5 -3 9 6 9 20 0 18 16 39 56 73 44 39 116 89
132 92 2 1 -22 -31 -53 -71z m-91 -653 c-90 -87 -106 -96 -275 -164 -68 -27
-162 -67 -209 -89 -83 -38 -213 -72 -226 -59 -4 4 6 17 22 29 75 59 99 86 87
99 -18 18 -17 50 1 43 8 -3 16 -13 19 -23 5 -22 31 -24 80 -5 47 18 57 17 33
-1 -11 -8 -14 -15 -7 -15 7 0 10 -4 6 -9 -3 -5 -1 -13 5 -16 6 -4 9 -1 8 6 -2
6 3 14 11 17 8 3 11 0 7 -7 -4 -6 7 -3 23 7 23 13 29 22 25 37 l-6 20 17 -20
c9 -11 13 -14 9 -6 -5 11 -3 13 12 8 18 -7 18 -6 2 7 -24 18 -23 25 4 18 13
-3 19 -1 15 5 -7 11 83 54 235 114 54 21 114 47 135 58 21 11 40 20 42 21 3 0
-31 -34 -75 -75z m-3014 -160 c-28 -16 -9 -21 21 -5 21 12 26 1 7 -18 -9 -9
-8 -12 3 -16 52 -16 49 -11 44 -93 -3 -42 -10 -82 -15 -87 -17 -17 -11 -25 28
-42 l37 -15 -32 -14 c-38 -16 -41 -33 -14 -64 11 -12 36 -48 56 -79 20 -31 48
-66 63 -76 l27 -19 -24 26 c-28 31 -23 44 11 26 12 -7 27 -13 31 -14 9 0 27
-26 27 -39 0 -5 -6 -3 -14 3 -9 8 -16 8 -20 2 -7 -11 24 -31 48 -31 9 0 16 -7
16 -15 0 -18 -31 -20 -48 -3 -9 9 -12 6 -12 -15 0 -34 -25 -27 -35 10 -9 37
-47 70 -96 83 -24 6 -48 17 -54 24 -5 7 -26 16 -45 19 -36 7 -47 20 -120 141
-23 39 -16 41 23 8 10 -9 26 -16 36 -17 17 -1 16 4 -9 59 -21 47 -32 60 -46
58 -62 -11 -73 -15 -67 -26 4 -6 -11 4 -34 22 -33 26 -46 46 -63 97 -12 36
-26 67 -31 70 -13 9 -11 35 3 35 6 0 8 -3 5 -7 -12 -12 15 -33 43 -33 18 0 36
-9 47 -23 10 -13 26 -26 36 -30 11 -4 15 -12 11 -19 -6 -10 -5 -11 8 -1 8 7
17 11 20 8 2 -3 19 11 38 30 25 26 31 37 22 47 -20 25 8 43 73 46 17 1 17 -1
-5 -13z m1371 -68 c-5 -12 -5 -46 0 -77 5 -29 5 -58 0 -64 -5 -6 -25 -51 -46
-101 -57 -134 -63 -141 -62 -61 1 36 1 66 0 66 -1 0 -24 -24 -52 -52 -27 -29
-53 -49 -57 -45 -4 4 11 23 34 42 29 26 54 63 87 133 47 100 93 182 100 182 3
0 1 -10 -4 -23z m33 -348 c-3 -5 2 -29 11 -54 11 -33 12 -51 5 -65 -14 -27
-13 -71 3 -67 18 3 11 -35 -17 -96 -13 -29 -34 -76 -47 -105 -25 -58 -36 -57
-42 3 -2 22 -7 47 -11 56 -4 10 -5 64 -3 120 4 95 19 158 43 182 5 5 9 22 10
38 1 16 10 41 20 56 l18 28 8 -44 c4 -24 5 -48 2 -52z m-893 -479 c-28 -25
-30 -30 -15 -31 11 -1 23 -1 28 0 4 1 14 -3 21 -9 9 -7 22 -2 50 20 21 16 41
30 44 30 13 -1 -85 -83 -121 -101 -53 -27 -183 -69 -210 -68 -17 1 -15 3 12
11 38 10 80 44 80 64 0 6 -7 15 -16 18 -12 5 8 19 67 50 46 24 86 45 89 45 3
0 -10 -13 -29 -29z m1810 -262 c56 -70 143 -252 142 -298 -1 -52 -32 -152 -44
-144 -15 9 -1 75 19 90 10 7 13 16 8 21 -5 4 -11 2 -14 -6 -2 -7 -15 15 -27
50 -28 81 -64 141 -78 132 -6 -4 -8 0 -4 10 10 25 -2 50 -18 37 -21 -17 -39
13 -25 40 8 15 9 25 1 33 -5 5 -7 23 -4 38 3 18 1 29 -6 29 -6 0 -11 5 -11 10
0 22 20 8 61 -42z m1924 -83 c83 -8 185 -15 228 -15 79 0 222 -19 213 -28 -7
-7 11 -40 52 -94 38 -50 63 -59 103 -37 11 6 33 7 50 4 35 -8 39 -38 8 -71
-18 -20 -28 -22 -76 -17 -30 3 -58 2 -61 -3 -9 -12 -59 -34 -77 -34 -7 0 -27
11 -43 25 -17 14 -36 25 -44 25 -20 0 -43 -28 -58 -72 -13 -35 -12 -38 18 -73
21 -23 32 -46 32 -65 0 -17 1 -33 3 -37 1 -5 -8 -9 -20 -11 -15 -2 -32 10 -59
42 -40 49 -86 62 -98 30 -18 -47 -6 -79 54 -143 54 -58 62 -63 90 -57 18 3 43
15 58 26 14 11 44 29 68 39 48 21 131 100 156 148 9 17 39 47 67 65 27 18 56
44 63 57 7 13 31 37 53 53 22 16 54 50 72 76 18 26 56 66 85 88 29 23 52 46
51 52 -3 12 16 8 139 -30 111 -34 111 -35 35 -105 -24 -23 -70 -75 -101 -116
-31 -41 -71 -86 -88 -100 -75 -57 -192 -183 -210 -226 -4 -9 -7 -35 -7 -58 -1
-33 -6 -46 -23 -57 -24 -15 -77 -25 -138 -27 -56 -2 -67 -8 -80 -39 -7 -17
-17 -30 -23 -30 -6 0 -8 -3 -4 -6 9 -10 -64 -83 -109 -110 -22 -13 -51 -35
-65 -50 -13 -14 -60 -52 -104 -84 -44 -33 -96 -75 -115 -95 -27 -29 -40 -35
-60 -31 -14 3 -79 15 -145 26 -66 12 -124 25 -128 29 -8 8 67 111 81 111 4 0
19 11 34 25 33 30 170 123 221 149 20 11 37 22 37 26 0 4 16 28 36 54 20 26
32 51 28 56 -16 14 -173 50 -191 43 -35 -13 -125 -97 -144 -135 -11 -21 -28
-44 -39 -50 -11 -7 -20 -18 -20 -23 0 -6 -16 -17 -35 -24 -19 -7 -59 -37 -87
-68 -29 -31 -77 -79 -105 -108 -53 -52 -64 -68 -40 -60 6 2 28 0 47 -4 30 -8
32 -9 10 -11 -14 -2 -36 -4 -50 -6 -39 -4 -60 5 -60 27 0 11 -4 18 -9 15 -5
-3 -23 17 -41 44 -33 52 -39 56 -56 41 -5 -5 -17 -1 -28 10 -18 17 -18 19 -2
19 11 0 15 4 10 13 -6 9 -4 9 7 1 21 -16 49 -25 46 -14 -1 5 12 24 28 42 17
18 60 69 95 113 78 98 90 110 154 153 60 41 105 88 112 118 7 27 -16 82 -49
118 -15 16 -24 32 -22 37 3 4 -5 9 -17 11 -16 2 -30 19 -49 57 -15 29 -31 56
-37 60 -10 7 -10 47 1 57 4 4 7 29 7 56 0 46 1 48 29 48 17 0 33 5 36 10 4 6
-5 10 -19 10 -14 0 -26 5 -26 12 0 17 79 88 114 104 39 17 49 17 231 -1z
m-5509 -35 c8 0 11 -6 8 -15 -4 -9 0 -15 9 -15 8 0 17 -7 21 -15 4 -12 0 -14
-18 -9 -48 12 -40 -10 50 -139 18 -25 49 -83 70 -128 20 -46 43 -90 51 -97 7
-7 13 -18 13 -24 0 -6 6 -5 15 2 13 11 20 9 43 -13 35 -34 49 -34 83 -1 15 14
32 23 38 20 13 -8 15 -36 2 -36 -4 0 -11 -27 -15 -60 -8 -65 -23 -77 -46 -35
-18 33 -25 32 -28 -6 -2 -19 4 -40 14 -50 20 -22 28 -23 46 -6 26 24 52 42 45
30 -4 -6 13 -1 38 12 25 14 45 20 45 13 0 -18 -160 -171 -247 -235 -82 -61
-135 -85 -227 -102 l-49 -9 24 22 c13 12 70 57 127 101 94 72 172 158 157 173
-3 4 -10 0 -15 -8 -11 -17 -17 -12 -20 15 -5 45 0 57 20 52 10 -3 19 -2 18 2
-1 3 3 15 7 25 6 15 2 25 -19 43 -46 39 -59 27 -31 -27 9 -17 11 -30 6 -30 -9
0 -52 79 -147 270 -23 47 -61 115 -85 150 -29 44 -44 77 -45 103 -2 30 1 37
13 33 8 -3 21 -6 29 -6z m2357 -112 c-3 -13 -19 -52 -36 -88 -17 -36 -32 -74
-33 -85 0 -11 -5 -29 -9 -40 -4 -11 7 0 24 25 17 25 35 45 40 45 5 0 12 3 16
7 9 9 36 -2 30 -12 -2 -4 8 -5 23 -2 25 5 26 4 12 -13 -11 -14 -3 -12 40 9 30
15 47 21 38 13 -23 -18 -23 -38 -1 -30 12 5 14 3 8 -8 -8 -12 -6 -12 8 0 9 7
17 9 17 4 0 -5 9 -19 20 -31 l21 -22 -21 0 c-31 0 -15 -17 23 -26 28 -6 29 -8
12 -15 -11 -4 -14 -8 -7 -8 7 -1 10 -5 7 -11 -3 -5 -2 -10 3 -10 5 0 14 10 21
23 11 22 11 22 8 -4 -2 -14 2 -31 10 -37 15 -15 18 -46 3 -37 -6 4 -8 11 -5
16 4 5 1 9 -5 9 -7 0 -9 -8 -5 -20 5 -17 2 -20 -20 -20 -17 0 -25 -5 -22 -12
2 -7 0 -21 -5 -30 -6 -13 -5 -18 6 -18 8 0 18 5 21 11 4 6 14 8 23 4 9 -3 13
-3 9 1 -4 4 8 18 25 31 36 26 38 27 38 13 0 -5 -6 -10 -14 -10 -8 0 -17 -4
-20 -9 -11 -18 45 -3 59 15 12 17 11 20 -13 27 -60 19 -58 17 -38 33 15 10 16
14 5 14 -28 0 -19 38 12 49 33 11 41 -3 12 -24 -15 -11 -15 -13 5 -19 12 -4
20 -12 17 -17 -4 -5 -3 -9 2 -9 11 0 34 51 27 61 -3 5 1 9 8 10 7 0 23 2 36 5
28 5 28 -10 -1 -61 -17 -29 -22 -52 -19 -78 3 -28 0 -38 -13 -43 -25 -10 4
-25 34 -17 16 4 22 2 17 -5 -4 -6 -22 -14 -41 -18 -21 -4 -35 -12 -35 -21 0
-8 -4 -12 -9 -9 -9 6 -121 -36 -168 -62 -14 -8 -23 -22 -23 -37 0 -13 -4 -26
-10 -30 -5 -3 -7 -12 -4 -20 3 -7 1 -22 -4 -32 -10 -17 -11 -17 -18 2 -4 11
-14 29 -23 40 -15 18 -15 19 2 6 10 -8 17 -9 17 -3 0 6 5 23 11 39 6 15 13 48
15 73 4 39 11 77 30 165 8 35 -36 -59 -47 -100 -28 -106 -44 -145 -59 -145 -9
0 -22 -6 -30 -12 -12 -11 -12 -10 -1 5 11 14 11 17 -2 17 -9 0 -18 -4 -21 -9
-4 -5 -29 -12 -56 -16 -37 -5 -50 -11 -51 -23 0 -11 -2 -12 -6 -4 -2 6 -9 9
-15 6 -5 -3 -8 2 -6 12 2 11 -2 18 -8 17 -6 -1 -11 5 -11 13 0 7 5 14 11 14 6
0 4 5 -4 10 -11 7 -18 2 -30 -23 -14 -30 -19 -32 -73 -35 -33 -2 -57 1 -57 7
0 15 -59 -21 -64 -39 -3 -8 -3 1 -1 20 4 33 38 123 61 163 7 12 24 19 47 20
23 1 37 7 37 16 0 7 6 11 14 8 10 -4 13 -1 10 7 -3 7 2 19 11 26 12 10 15 10
15 -1 1 -9 4 -8 11 4 6 10 8 30 4 44 -4 16 1 37 15 60 11 20 19 38 16 40 -3 3
-23 -31 -45 -76 -28 -55 -45 -79 -55 -75 -8 3 -20 -3 -27 -13 -8 -11 -21 -23
-29 -28 -11 -7 -11 -3 3 18 10 15 32 51 49 80 16 28 43 70 58 92 34 50 124
225 126 245 2 26 4 30 13 30 5 0 7 -10 4 -22z m-2828 -120 c29 -13 33 -27 8
-30 -33 -2 -38 -4 -50 -11 -7 -4 -27 -38 -44 -75 -18 -37 -35 -69 -38 -72 -9
-7 -30 -42 -41 -67 -5 -12 -24 -44 -43 -70 -18 -26 -36 -53 -38 -58 -9 -23
-75 -115 -81 -115 -4 0 9 35 29 78 20 42 67 147 105 232 39 85 79 165 91 178
23 24 62 29 102 10z m5380 -148 c3 -5 20 -7 38 -4 27 4 29 3 14 -6 -14 -9 -15
-15 -7 -25 14 -17 2 -171 -16 -186 -7 -5 -42 -11 -78 -12 -75 -2 -91 -15 -101
-82 -15 -92 18 -202 70 -243 20 -16 23 -22 12 -22 -9 0 -72 55 -139 123 -112
111 -203 186 -212 176 -2 -2 -8 -77 -13 -166 -5 -89 -12 -165 -16 -169 -4 -4
-38 2 -75 14 -59 19 -71 27 -92 62 -49 80 -45 77 -70 55 -12 -11 -26 -29 -29
-39 -6 -15 -12 -6 -28 40 -35 100 -65 216 -70 277 -6 55 -5 57 18 58 42 1 132
-2 197 -7 53 -4 62 -3 62 12 0 13 6 15 28 10 15 -4 79 -11 142 -17 63 -5 135
-11 160 -14 l45 -4 -45 13 c-49 15 -50 14 50 46 65 21 86 29 137 53 25 11 23
12 -38 17 -66 5 -67 10 -9 37 31 14 57 16 65 3z m-4025 -430 c4 0 45 -24 91
-54 58 -39 100 -77 146 -133 55 -67 68 -78 95 -78 56 0 40 -20 -54 -71 -50
-27 -127 -68 -171 -91 -44 -24 -91 -43 -105 -43 -14 0 -53 11 -86 24 -34 13
-83 27 -111 31 -27 4 -58 11 -67 16 -16 9 -18 -1 -20 -108 l-3 -116 -72 -43
c-39 -23 -80 -45 -90 -48 -10 -3 -74 -33 -142 -67 -68 -33 -151 -71 -185 -85
-34 -14 -78 -34 -100 -46 l-39 -21 7 34 c4 19 9 75 12 124 4 60 11 96 22 108
16 18 170 94 257 128 28 10 61 29 75 41 14 13 48 41 75 63 65 52 83 73 94 114
6 19 20 44 32 57 13 13 19 24 15 24 -8 0 15 46 62 122 19 32 39 55 43 52 5 -3
12 2 15 11 4 8 35 31 70 51 35 20 64 40 64 46 0 5 14 -2 31 -16 17 -14 34 -26
39 -26z m925 -547 c25 -38 57 -82 71 -100 l26 -32 -24 -5 c-12 -3 -47 -7 -77
-10 -112 -11 -130 -59 -86 -222 14 -55 32 -112 40 -129 9 -19 10 -33 4 -41 -5
-7 -11 -33 -12 -58 -1 -25 -5 -46 -9 -46 -4 0 -8 -10 -10 -22 -2 -15 -9 -22
-21 -22 -22 2 -23 -30 -2 -79 31 -74 8 -229 -56 -385 -5 -13 -9 -29 -9 -37 0
-8 -13 -41 -29 -74 -15 -32 -31 -71 -35 -85 -3 -14 -11 -38 -17 -53 -10 -27
-11 -28 -26 -8 -14 19 -15 17 -11 -27 2 -27 0 -48 -5 -48 -4 0 -11 -8 -14 -17
-9 -23 -29 -43 -42 -43 -22 0 -9 92 40 286 28 109 72 266 99 348 28 83 48 151
46 153 -1 2 -19 -13 -39 -32 -20 -19 -43 -35 -52 -35 -9 0 -35 -13 -58 -28
-23 -16 -54 -32 -68 -35 -88 -22 -117 -19 -213 23 -95 41 -161 -20 -155 -145
5 -92 -15 -107 -79 -58 -19 14 -51 28 -71 30 -61 6 -195 55 -223 81 -15 14
-31 41 -34 60 l-7 35 -21 -39 c-13 -25 -21 -59 -22 -94 0 -30 -4 -84 -9 -120
-7 -59 -11 -69 -54 -112 -25 -26 -51 -48 -57 -48 -5 0 -26 -12 -45 -26 -27
-20 -41 -24 -71 -20 -33 5 -41 2 -72 -29 -20 -19 -40 -35 -46 -35 -5 0 -27 15
-47 34 -30 27 -49 34 -92 38 -51 5 -54 4 -64 -22 -6 -15 -26 -37 -46 -50 -60
-40 -81 -62 -81 -88 0 -31 -30 -82 -50 -83 -35 -3 -54 4 -74 28 -20 23 -24 24
-44 12 -18 -11 -22 -23 -22 -61 0 -26 -5 -50 -11 -54 -6 -3 -22 -32 -36 -63
-42 -95 -73 -112 -126 -70 -21 16 -31 18 -46 10 -11 -6 -38 -11 -61 -11 -22 0
-57 -7 -77 -15 -19 -8 -38 -15 -42 -15 -4 0 -18 32 -31 70 -24 68 -26 71 -54
68 -23 -2 -32 -10 -41 -37 -6 -19 -18 -38 -26 -42 -69 -34 -131 -57 -166 -63
-23 -3 -62 -15 -88 -26 -26 -11 -50 -18 -55 -15 -4 2 -3 24 3 48 8 38 7 46
-17 81 -14 21 -26 43 -26 49 0 25 -58 -68 -88 -141 -31 -73 -36 -81 -61 -80
-37 1 -69 -17 -111 -62 -23 -26 -53 -44 -89 -56 -50 -16 -55 -20 -82 -78 -16
-34 -29 -77 -30 -96 0 -19 -4 -44 -8 -55 -10 -23 -4 -45 12 -45 6 0 28 12 49
26 48 33 84 27 100 -17 6 -17 21 -51 34 -76 56 -105 12 -125 -161 -73 -33 10
-84 21 -114 25 -54 6 -93 27 -150 82 -35 34 -62 28 -85 -18 -15 -30 -55 -37
-74 -12 -13 17 -14 17 -28 -2 -12 -16 -26 -20 -67 -20 -29 0 -55 -4 -59 -9 -3
-5 -4 -28 -2 -50 4 -32 0 -47 -18 -68 l-23 -27 -53 25 -52 26 -43 -20 c-23
-11 -50 -22 -59 -25 -18 -6 -26 -47 -9 -47 5 0 16 -13 24 -29 13 -25 12 -29
-4 -39 -29 -18 -254 -17 -332 1 -145 35 -237 112 -237 197 0 36 206 189 355
263 55 27 235 105 279 121 10 3 91 -1 179 -10 203 -21 255 -12 295 48 18 28
45 48 98 74 81 39 94 51 103 96 6 30 10 32 48 33 31 1 55 10 90 35 49 35 93
79 93 93 0 4 21 17 46 28 26 11 63 37 84 59 33 35 40 38 77 33 37 -5 44 -2 96
43 48 43 55 54 56 87 1 31 7 41 34 57 17 11 43 23 57 26 28 5 162 69 200 94
38 26 131 50 194 50 31 0 56 1 56 3 0 1 9 27 19 57 15 48 23 58 62 77 24 12
61 25 82 28 20 3 47 16 60 29 17 18 37 25 87 30 36 3 97 13 135 21 69 15 71
16 156 105 52 54 94 90 106 90 11 0 37 14 58 30 21 17 43 30 50 30 7 0 19 9
26 19 17 23 289 161 318 161 12 0 21 4 21 10 0 11 87 62 255 150 66 34 124 66
129 71 24 22 69 -10 80 -57 4 -14 26 -55 50 -93 35 -54 56 -76 103 -102 65
-38 112 -42 213 -19 87 19 102 27 98 52 -3 20 -8 22 -64 19 -53 -2 -72 3 -125
29 -35 18 -77 42 -94 55 -34 25 -111 165 -103 186 3 8 70 50 149 93 79 43 148
85 152 92 4 8 16 14 26 14 10 0 29 9 43 19 16 13 33 18 47 14 23 -6 81 8 136
33 17 7 31 14 33 14 1 0 23 -30 47 -67z m-1007 -1093 c23 -17 42 -37 42 -45 0
-8 4 -15 9 -15 5 0 12 -11 15 -24 5 -19 16 -25 65 -35 45 -9 76 -24 126 -61
37 -28 74 -50 81 -50 19 0 124 -49 124 -58 0 -4 -9 -8 -21 -9 -11 -1 -33 -10
-47 -20 -40 -26 -52 -25 -89 8 -54 47 -112 33 -132 -31 -13 -44 -35 -55 -87
-46 -32 7 -61 36 -47 50 3 3 1 6 -5 6 -7 0 -12 6 -12 13 0 8 -19 22 -42 33
-26 11 -44 27 -46 39 -2 11 -11 28 -20 38 -11 13 -16 41 -17 107 -1 49 -4 93
-8 96 -12 13 15 34 43 34 15 0 46 -14 68 -30z m-5555 -10 c13 -35 23 -38 32
-10 3 11 11 20 16 20 6 0 8 -9 4 -19 -7 -23 14 -111 26 -111 5 0 9 8 9 18 0
14 2 14 9 3 5 -8 16 -16 24 -17 8 -1 28 -5 44 -8 23 -5 32 -3 36 8 11 27 30
18 24 -11 -7 -38 1 -57 19 -42 11 9 18 8 29 -1 27 -22 16 -38 -49 -74 -79 -44
-117 -53 -135 -32 -10 12 -16 13 -32 3 -15 -9 -23 -9 -39 1 -11 6 -28 12 -37
12 -10 0 -14 4 -8 8 15 11 45 68 45 87 0 9 4 14 9 11 13 -8 19 16 10 39 -4 11
-8 14 -8 7 -1 -7 -6 -10 -12 -7 -6 4 -8 14 -5 22 3 8 2 12 -3 9 -11 -7 -21 17
-21 52 -1 26 -1 26 -15 8 -9 -13 -15 -15 -15 -7 0 8 8 20 18 27 10 8 12 13 5
14 -16 0 -17 20 -2 20 6 0 16 -13 22 -30z m3456 -863 c1 -10 28 -69 61 -129
33 -61 60 -116 60 -122 -1 -15 -87 -66 -111 -66 -43 0 -106 46 -145 106 -24
35 -9 77 43 126 49 47 73 85 74 120 0 22 1 22 9 3 5 -11 9 -28 9 -38z m2471
-47 c0 -15 -8 -34 -17 -43 -42 -38 -233 -76 -254 -51 -18 22 11 54 51 54 36 1
70 19 70 39 0 6 1 11 3 11 1 0 19 6 39 13 20 7 53 11 73 9 31 -4 35 -8 35 -32z
m-1279 -32 c77 -27 201 -141 136 -124 -16 4 -41 -8 -85 -38 -54 -38 -68 -43
-100 -39 -31 4 -44 0 -70 -22 -23 -19 -39 -25 -56 -21 -14 3 -48 -4 -84 -19
-61 -25 -105 -31 -136 -19 -13 5 -8 16 26 58 56 67 112 130 170 188 45 47 48
48 106 48 32 0 74 -5 93 -12z"/>
<path d="M2549 4913 c-13 -3 -27 -48 -43 -138 -2 -11 -14 -37 -26 -58 -14 -24
-19 -43 -14 -55 7 -16 23 -124 25 -165 0 -13 5 -16 20 -12 11 4 19 2 19 -4 0
-8 7 -7 20 1 11 7 20 17 20 23 0 10 86 37 128 39 12 0 22 5 22 9 0 5 4 6 9 3
18 -12 20 27 6 112 -19 107 -38 170 -67 216 -20 31 -28 35 -63 34 -22 0 -47
-2 -56 -5z"/>
<path d="M2463 4425 c-34 -35 -43 -65 -20 -65 19 0 47 -37 54 -73 6 -33 40
-97 51 -97 4 0 35 -27 69 -60 56 -52 133 -104 118 -79 -4 5 3 9 15 9 15 0 22
8 27 33 4 17 6 35 5 40 -1 4 2 7 8 7 5 0 10 7 10 15 0 19 19 19 44 0 13 -10
44 -15 90 -15 78 0 133 15 161 44 19 18 19 18 29 -4 8 -17 7 -25 -2 -28 -7 -2
-10 -8 -6 -13 3 -5 1 -9 -5 -9 -13 0 -23 -52 -16 -83 8 -30 35 -44 50 -24 5 7
15 16 20 18 6 2 36 24 67 49 40 31 58 52 58 67 0 13 4 22 8 20 4 -1 20 10 35
26 19 19 23 27 13 27 -9 0 -13 6 -10 14 3 9 -1 13 -13 13 -10 -1 -17 4 -16 11
2 6 -2 12 -7 12 -6 0 -10 -4 -10 -9 0 -11 -56 -41 -77 -41 -7 0 -13 -4 -13 -9
0 -13 -32 -18 -60 -10 -17 5 -19 7 -7 8 10 1 32 15 49 31 16 17 36 30 44 30 8
0 14 7 14 15 0 18 -16 20 -23 3 -3 -8 -6 -6 -6 4 -1 12 -13 19 -38 23 -21 4
-49 10 -63 15 -14 5 -52 12 -85 15 -57 6 -61 5 -88 -23 -15 -16 -27 -33 -26
-38 4 -18 -21 -64 -35 -64 -7 0 -16 -6 -19 -14 -7 -18 -74 -26 -74 -9 0 7 4
13 9 13 4 0 8 20 8 45 0 43 -1 44 -37 50 -85 14 -100 19 -157 48 -32 17 -61
38 -63 48 -3 10 -12 20 -21 24 -14 5 -14 7 -2 15 12 8 11 10 -5 9 -11 0 -35
-16 -52 -34z"/>
<path d="M1089 3691 c-38 -32 -109 -139 -109 -165 0 -22 29 -52 57 -58 36 -9
90 56 96 117 3 28 8 62 11 76 3 14 0 33 -7 42 -11 16 -15 15 -48 -12z"/>
</g>
</svg>
